<svg width="155" height="39" viewBox="0 0 155 39" fill="none" xmlns="http://www.w3.org/2000/svg">
<path d="M150.583 36.273V32.7465C151.521 32.708 152.406 32.3037 153.048 31.6202C153.691 30.9368 154.04 30.0286 154.021 29.0907C154.002 28.1527 153.616 27.2597 152.946 26.6031C152.275 25.9466 151.375 25.5788 150.436 25.5788C149.498 25.5788 148.598 25.9466 147.927 26.6031C147.257 27.2597 146.871 28.1527 146.852 29.0907C146.833 30.0286 147.182 30.9368 147.825 31.6202C148.467 32.3037 149.352 32.708 150.29 32.7465V36.273H145.184V10.9155H128.307V3.47616H124.722L106.544 0H106.476L92.6054 11.3353L94.6709 12.3681V16.7931H91.942V15.7771H94.6541V15.4832H91.942V14.5344H91.6482V15.4832H86.14V14.5344H85.8461V15.4832H80.3464V14.5344H80.0525V15.4832H74.5528V14.5344H74.2589V15.4832H68.7508V14.5344H68.4569V15.4832H65.493L63.6961 9.79036V9.6896H62.6885V8.237H61.2191V9.6896H12.662V8.237H11.2262V9.6896H9.90791V36.273H4.74404V32.7465C5.68364 32.708 6.57074 32.3028 7.21498 31.6178C7.85923 30.9327 8.2093 30.0225 8.19007 29.0823C8.17084 28.1421 7.78385 27.2469 7.11213 26.5888C6.44041 25.9307 5.53749 25.562 4.5971 25.562C3.65672 25.562 2.75379 25.9307 2.08208 26.5888C1.41036 27.2469 1.02337 28.1421 1.00414 29.0823C0.984908 30.0225 1.33497 30.9327 1.97922 31.6178C2.62347 32.3028 3.51056 32.708 4.45016 32.7465V36.273H0V38.4729H155V36.273H150.583ZM147.149 29.1696C147.149 28.5186 147.342 27.8822 147.704 27.3409C148.066 26.7997 148.58 26.3778 149.181 26.1287C149.783 25.8795 150.444 25.8144 151.083 25.9414C151.721 26.0684 152.308 26.3818 152.768 26.8422C153.228 27.3025 153.542 27.8889 153.669 28.5274C153.796 29.1659 153.731 29.8277 153.482 30.4291C153.232 31.0306 152.811 31.5446 152.269 31.9063C151.728 32.268 151.092 32.461 150.441 32.461C149.568 32.4588 148.733 32.1113 148.116 31.4945C147.499 30.8777 147.151 30.0418 147.149 29.1696V29.1696ZM93.361 18.5311V21.831H90.1284V18.5311H93.361ZM86.14 15.7771H91.6482V16.7931H86.14V15.7771ZM87.601 18.5311V21.831H84.36V18.5311H87.601ZM80.3464 15.7771H85.8461V16.7931H80.3464V15.7771ZM81.8326 18.5311V21.831H78.5999V18.5311H81.8326ZM74.5528 15.7771H80.0525V16.7931H74.5528V15.7771ZM76.0726 18.5311V21.831H72.8315V18.5311H76.0726ZM68.7508 15.7771H74.2589V16.7931H68.7508V15.7771ZM70.3042 18.5311V21.831H67.0715V18.5311H70.3042ZM68.4569 15.7771V16.7931H65.938L65.6105 15.7435L68.4569 15.7771ZM61.513 8.53088H62.3527V9.6896H61.513V8.53088ZM61.513 9.98348H62.3527V11.3605H61.513V9.98348ZM11.52 8.53088H12.3597V9.6896H11.52V8.53088ZM11.52 9.98348H12.3597V11.3605H11.52V9.98348ZM1.30146 29.1696C1.2998 28.5166 1.49192 27.8777 1.8535 27.334C2.21508 26.7902 2.72986 26.366 3.33268 26.1149C3.9355 25.8639 4.59925 25.7973 5.2399 25.9237C5.88056 26.0501 6.46932 26.3637 6.93165 26.8248C7.39398 27.286 7.7091 27.874 7.8371 28.5143C7.96511 29.1546 7.90026 29.8185 7.65075 30.422C7.40124 31.0255 6.9783 31.5413 6.43546 31.9043C5.89262 32.2672 5.2543 32.461 4.6013 32.461C3.72758 32.461 2.88952 32.1145 2.27093 31.4975C1.65233 30.8804 1.30369 30.0433 1.30146 29.1696ZM154.706 38.179H0.293879V36.5669H10.2018V9.98348H11.2262V11.6628H12.662V9.98348H61.2191V11.6628H62.6549V9.98348H63.4442L65.6777 17.0198V17.1205H68.4233V18.2373H66.744V22.1249H70.5645V18.2373H68.7172V17.1205H74.2253V18.2373H72.546V22.1249H76.3665V18.2373H74.5528V17.1205H80.0525V18.2373H78.3061V22.1249H82.1265V18.2373H80.3464V17.1205H85.8461V18.2373H84.0661V22.1249H87.8949V18.2373H86.14V17.1205H91.6482V18.2373H89.8429V22.1249H93.6633V18.2373H91.984V17.1205H95.0068V12.1918L93.1847 11.2765L106.619 0.361051L124.764 3.81203H128.123V11.1674H145V36.5669H154.815L154.706 38.179Z" fill="#1D1D1B"/>
<path d="M12.4476 36.5262H22.0784V34.6286H12.4476V36.5262ZM12.7415 34.9141H21.7845V36.2324H12.7415V34.9141Z" fill="#1D1D1B"/>
<path d="M23.5089 36.5262H33.1649V34.6286H23.5089V36.5262ZM23.8028 34.9141H32.871V36.2324H23.8363L23.8028 34.9141Z" fill="#1D1D1B"/>
<path d="M34.637 36.5262H44.2594V34.6286H34.637V36.5262ZM34.9309 34.9141H43.9655V36.2324H34.9309V34.9141Z" fill="#1D1D1B"/>
<path d="M45.7275 36.5262H55.3583V34.6286H45.7275V36.5262ZM46.0214 34.9141H55.0645V36.2324H46.0214V34.9141Z" fill="#1D1D1B"/>
<path d="M56.8306 36.5262H66.453V34.6286H56.8306V36.5262ZM57.0993 34.9141H66.1591V36.2324H57.0993V34.9141Z" fill="#1D1D1B"/>
<path d="M67.9211 36.5262H77.5435V34.6286H67.9211V36.5262ZM68.215 34.9141H77.2496V36.2324H68.215V34.9141Z" fill="#1D1D1B"/>
<path d="M79.0074 36.5262H88.6382V34.6286H79.0074V36.5262ZM79.3013 34.9141H88.3444V36.2324H79.3013V34.9141Z" fill="#1D1D1B"/>
<path d="M90.1063 36.5262H99.7287V34.6286H90.1063V36.5262ZM90.4001 34.9141H99.4348V36.2324H90.4001V34.9141Z" fill="#1D1D1B"/>
<path d="M107.114 36.5262H125.107V34.6286H107.114V36.5262ZM107.408 34.9141H124.797V36.2324H107.408V34.9141Z" fill="#1D1D1B"/>
<path d="M118.012 32.8551V20.2603H114.191V32.8551H118.012ZM114.477 20.5709H117.718V32.5696H114.477V20.5709Z" fill="#1D1D1B"/>
<path d="M111.594 32.8551V20.2603H107.773V32.8551H111.594ZM108.067 20.5709H111.3V32.5696H108.067V20.5709Z" fill="#1D1D1B"/>
<path d="M124.438 32.8551V20.2603H120.609V32.8551H124.438ZM120.912 20.5709H124.153V32.5696H120.912V20.5709Z" fill="#1D1D1B"/>
<path d="M53.6612 32.8591H56.5412V26.8724H53.6612V32.8591ZM53.9551 27.1998H56.2558V32.5736H53.9551V27.1998Z" fill="#1D1D1B"/>
<path d="M51.3634 32.8591V26.8724H48.4834V32.8255L51.3634 32.8591ZM48.7773 27.1998H51.0696V32.5736H48.7773V27.1998Z" fill="#1D1D1B"/>
<path d="M46.1815 32.8591V26.8724H43.3015V32.8255L46.1815 32.8591ZM43.5953 27.1998H45.8876V32.5736H43.5953V27.1998Z" fill="#1D1D1B"/>
<path d="M41.0037 32.8591V26.8724H38.1237V32.8255L41.0037 32.8591ZM38.4175 27.1998H40.7098V32.5736H38.4175V27.1998Z" fill="#1D1D1B"/>
<path d="M35.8301 32.8591V26.8724H32.9417V32.8255L35.8301 32.8591ZM33.2356 27.1998H35.5362V32.5736H33.2356V27.1998Z" fill="#1D1D1B"/>
<path d="M30.6397 32.8591V26.8724H27.7513V32.8255L30.6397 32.8591ZM28.0452 27.1998H30.3459V32.5736H28.0452V27.1998Z" fill="#1D1D1B"/>
<path d="M25.4661 26.8724H22.5777V32.8255H25.4661V26.8724ZM25.1891 32.5736H22.8716V27.1998H25.1891V32.5736Z" fill="#1D1D1B"/>
<path d="M20.2842 32.8591V26.8724H17.3958V32.8255L20.2842 32.8591ZM17.6896 27.1998H19.9903V32.5736H17.6896V27.1998Z" fill="#1D1D1B"/>
<path d="M140.055 26.5175V32.479H142.935V26.5175H140.055ZM142.641 32.1851H140.349V26.8113H142.641V32.1851Z" fill="#1D1D1B"/>
<path d="M134.878 26.5175V32.479H137.758V26.5175H134.878ZM137.464 32.1851H135.188V26.8113H137.48L137.464 32.1851Z" fill="#1D1D1B"/>
<path d="M129.691 26.5175V32.479H132.571V26.5175H129.691ZM132.278 32.1851H129.985V26.8113H132.278V32.1851Z" fill="#1D1D1B"/>
<path d="M124.884 5.59955H121.206V10.713H124.884V5.59955ZM124.59 10.4192H121.5V5.87663H124.59V10.4192Z" fill="#1D1D1B"/>
<path d="M118.111 5.59955H114.434V10.713H118.111V5.59955ZM117.817 10.4192H114.727V5.87663H117.817V10.4192Z" fill="#1D1D1B"/>
<path d="M111.351 5.59955H107.673V10.713H111.351V5.59955ZM111.057 10.4192H107.967V5.87663H111.057V10.4192Z" fill="#1D1D1B"/>
<path d="M111.351 16.641V13.3495H107.673V16.641H111.351ZM107.992 13.6434H111.082V16.3471H107.992V13.6434Z" fill="#1D1D1B"/>
<path d="M116.236 16.641V13.3495H114.262V16.641H116.236ZM114.556 13.6434H115.942V16.3471H114.556V13.6434Z" fill="#1D1D1B"/>
<path d="M124.903 16.641V13.3495H117.682V16.641H124.903ZM117.976 13.6434H124.609V16.3471H117.976V13.6434Z" fill="#1D1D1B"/>
<path d="M134.878 15.5668V21.5199H137.758V15.5668H134.878ZM137.464 21.2345H135.188V15.8607H137.48L137.464 21.2345Z" fill="#1D1D1B"/>
<path d="M139.041 16.7945V20.321H140.762V16.7945H139.041ZM140.468 20.0523H139.377V17.0632H140.51L140.468 20.0523Z" fill="#1D1D1B"/>
<path d="M142.106 16.7945V20.321H143.785V16.7945H142.106ZM143.533 20.0523H142.399V17.0632H143.533V20.0523Z" fill="#1D1D1B"/>
<path d="M57.9371 16.7945V20.321H59.6164V16.7945H57.9371ZM59.3645 20.0523H58.1974V17.0632H59.3309L59.3645 20.0523Z" fill="#1D1D1B"/>
<path d="M60.9561 20.321H62.6774V16.7945H60.9561V20.321ZM61.2919 17.0632H62.3835V20.0271H61.2919V17.0632Z" fill="#1D1D1B"/>
<path d="M12.9371 16.7945H11.2158V20.321H12.9371V16.7945ZM12.6432 20.0523H11.5097V17.0632H12.6432V20.0523Z" fill="#1D1D1B"/>
<path d="M14.2766 16.7945V20.321H15.9978V16.7945H14.2766ZM15.704 20.0523H14.5704V17.0632H15.704V20.0523Z" fill="#1D1D1B"/>
<path d="M12.9371 27.5739H11.2158V31.134H12.9371V27.5739ZM12.6432 30.8401H11.5097V27.8678H12.6432V30.8401Z" fill="#1D1D1B"/>
<path d="M15.9978 31.134V27.5739H14.2766V31.134H15.9978ZM14.5704 27.8678H15.704V30.8401H14.5704V27.8678Z" fill="#1D1D1B"/>
<path d="M104.542 11.0677H106.221V7.55792H104.542V11.0677ZM104.835 7.80982H105.969V10.7738H104.835V7.80982Z" fill="#1D1D1B"/>
<path d="M104.542 33.0512H106.221V31.7161H104.542V33.0512ZM104.835 32.01H105.969V32.7489H104.835V32.01Z" fill="#1D1D1B"/>
<path d="M104.542 14.7618H106.221V13.4352H104.542V14.7618ZM104.835 13.7206H105.969V14.4679H104.835V13.7206Z" fill="#1D1D1B"/>
<path d="M100.85 30.9315H102.53V27.3714H100.85V30.9315ZM101.144 27.6652H102.278V30.6376H101.144V27.6652Z" fill="#1D1D1B"/>
<path d="M59.6164 30.9315V27.3714H57.9371V30.9315H59.6164ZM58.1974 27.7072H59.3309V30.6796H58.1974V27.7072Z" fill="#1D1D1B"/>
<path d="M62.6774 27.3714H60.9561V30.9315H62.6774V27.3714ZM62.3835 30.6376H61.2919V27.7072H62.3835V30.6376Z" fill="#1D1D1B"/>
<path d="M65.4957 27.3714H63.8164V30.9315H65.4957V27.3714ZM65.2018 30.6376H64.0935V27.7072H65.227L65.2018 30.6376Z" fill="#1D1D1B"/>
<path d="M129.691 15.5668V21.5199H132.571V15.5668H129.691ZM132.278 21.2345H129.985V15.8607H132.278V21.2345Z" fill="#1D1D1B"/>
<path d="M53.6612 15.7505V21.7037H56.5412V15.7505H53.6612ZM56.2558 21.4098H53.9551V16.0444H56.2558V21.4098Z" fill="#1D1D1B"/>
<path d="M48.4834 15.7505V21.7037H51.3634V15.7505H48.4834ZM51.0696 21.4098H48.7773V16.0444H51.0696V21.4098Z" fill="#1D1D1B"/>
<path d="M43.3015 15.7505V21.7037H46.1815V15.7505H43.3015ZM45.8876 21.4098H43.5953V16.0444H45.8876V21.4098Z" fill="#1D1D1B"/>
<path d="M38.1237 15.7505V21.7037H41.0037V15.7505H38.1237ZM40.7098 21.4098H38.4175V16.0444H40.7098V21.4098Z" fill="#1D1D1B"/>
<path d="M32.9417 15.7505V21.7037H35.8301V15.7505H32.9417ZM35.5362 21.4098H33.2356V16.0444H35.5362V21.4098Z" fill="#1D1D1B"/>
<path d="M27.7513 15.7505V21.7037H30.6397V15.7505H27.7513ZM30.3459 21.4098H28.0452V16.0444H30.3459V21.4098Z" fill="#1D1D1B"/>
<path d="M22.5777 15.7505V21.7037H25.4661V15.7505H22.5777ZM25.1891 21.4098H22.8716V16.0444H25.1891V21.4098Z" fill="#1D1D1B"/>
<path d="M17.3958 15.7505V21.7037H20.2842V15.7505H17.3958ZM19.9903 21.4098H17.6896V16.0444H19.9903V21.4098Z" fill="#1D1D1B"/>
<path d="M93.672 26.8724H89.8432V32.8255H93.6636L93.672 26.8724ZM93.3781 32.54H90.1455V27.1663H93.3781V32.54Z" fill="#1D1D1B"/>
<path d="M84.0808 26.8724V32.8255H87.9012V26.8724H84.0808ZM87.6074 32.54H84.3747V27.1663H87.6074V32.54Z" fill="#1D1D1B"/>
<path d="M82.1472 26.8724H78.3268V32.8255H82.1472V26.8724ZM81.8533 32.54H78.6207V27.1663H81.8533V32.54Z" fill="#1D1D1B"/>
<path d="M72.5518 26.8724V32.8255H76.4059V26.8724H72.5518ZM76.0784 32.54H72.8457V27.1663H76.0784V32.54Z" fill="#1D1D1B"/>
<path d="M70.6183 26.8724H66.7895V32.8255H70.6183V26.8724ZM70.3244 32.54H67.0833V27.1663H70.3244V32.54Z" fill="#1D1D1B"/>
<path d="M95.6098 26.8724V32.8255H99.4386V26.8724H95.6098ZM99.1447 32.54H95.9036V27.1663H99.1447V32.54Z" fill="#1D1D1B"/>
<path d="M99.426 18.235H95.6056V22.1226H99.426V18.235ZM99.1321 21.8288H95.8995V18.5289H99.1321V21.8288Z" fill="#1D1D1B"/>
<path d="M129.458 36.5262H143.581V34.6286H129.458V36.5262ZM129.751 34.9141H143.32V36.2324H129.751V34.9141Z" fill="#1D1D1B"/>
<path d="M102.923 8.38889H102.629V11.5124H102.923V8.38889Z" fill="#1D1D1B"/>
<path d="M101.474 9.45367H101.18V12.5772H101.474V9.45367Z" fill="#1D1D1B"/>
<path d="M100.021 10.3201H99.727V13.4436H100.021V10.3201Z" fill="#1D1D1B"/>
<path d="M102.923 13.7859H102.629V16.9094H102.923V13.7859Z" fill="#1D1D1B"/>
<path d="M101.474 14.8549H101.18V17.9784H101.474V14.8549Z" fill="#1D1D1B"/>
<path d="M100.021 15.7192H99.727V18.8427H100.021V15.7192Z" fill="#1D1D1B"/>
<path d="M98.5677 11.2534H98.2738V14.3769H98.5677V11.2534Z" fill="#1D1D1B"/>
<path d="M97.1146 12.1804H96.8207V15.3039H97.1146V12.1804Z" fill="#1D1D1B"/>
<path d="M103.406 5.72811L103.229 5.5014L95.6641 11.4461L95.8404 11.6729L103.406 5.72811Z" fill="#1D1D1B"/>
<path d="M62.2438 12.6125H11.5707V12.9064H62.2438V12.6125Z" fill="#1D1D1B"/>
<path d="M62.2438 13.9947H11.5707V14.2886H62.2438V13.9947Z" fill="#1D1D1B"/>
<path d="M125.046 11.4684H107.631V11.7623H125.046V11.4684Z" fill="#1D1D1B"/>
<path d="M125.046 12.385H107.631V12.6789H125.046V12.385Z" fill="#1D1D1B"/>
<path d="M125.046 17.5711H107.631V17.865H125.046V17.5711Z" fill="#1D1D1B"/>
<path d="M125.046 18.4981H107.631V18.792H125.046V18.4981Z" fill="#1D1D1B"/>
<path d="M144.122 13.1763H127.984V13.4701H144.122V13.1763Z" fill="#1D1D1B"/>
<path d="M144.122 14.0991H127.984V14.3929H144.122V14.0991Z" fill="#1D1D1B"/>
<path d="M62.2438 23.0266H11.5707V23.3205H62.2438V23.0266Z" fill="#1D1D1B"/>
<path d="M62.2438 25.484H11.5707V25.7779H62.2438V25.484Z" fill="#1D1D1B"/>
<path d="M103.932 23.0266H64.4678V23.3205H103.932V23.0266Z" fill="#1D1D1B"/>
<path d="M103.932 25.484H64.4678V25.7779H103.932V25.484Z" fill="#1D1D1B"/>
<path d="M143.997 23.0266H128.564V23.3205H143.997V23.0266Z" fill="#1D1D1B"/>
<path d="M143.997 25.484H128.564V25.7779H143.997V25.484Z" fill="#1D1D1B"/>
<path d="M12.5077 23.5945H12.2138V25.215H12.5077V23.5945Z" fill="#1D1D1B"/>
<path d="M13.6392 23.5945H13.3454V25.215H13.6392V23.5945Z" fill="#1D1D1B"/>
<path d="M14.7875 23.5945H14.4937V25.215H14.7875V23.5945Z" fill="#1D1D1B"/>
<path d="M15.9192 23.5945H15.6253V25.215H15.9192V23.5945Z" fill="#1D1D1B"/>
<path d="M17.0591 23.5945H16.7652V25.215H17.0591V23.5945Z" fill="#1D1D1B"/>
<path d="M18.2074 23.5945H17.9135V25.215H18.2074V23.5945Z" fill="#1D1D1B"/>
<path d="M19.3473 23.5945H19.0535V25.215H19.3473V23.5945Z" fill="#1D1D1B"/>
<path d="M20.4915 23.5945H20.1976V25.215H20.4915V23.5945Z" fill="#1D1D1B"/>
<path d="M21.6273 23.5945H21.3334V25.215H21.6273V23.5945Z" fill="#1D1D1B"/>
<path d="M22.7672 23.5945H22.4733V25.215H22.7672V23.5945Z" fill="#1D1D1B"/>
<path d="M23.9113 23.5945H23.6175V25.215H23.9113V23.5945Z" fill="#1D1D1B"/>
<path d="M25.0513 23.5945H24.7574V25.215H25.0513V23.5945Z" fill="#1D1D1B"/>
<path d="M26.1912 23.5945H25.8974V25.215H26.1912V23.5945Z" fill="#1D1D1B"/>
<path d="M27.3354 23.5945H27.0415V25.215H27.3354V23.5945Z" fill="#1D1D1B"/>
<path d="M28.4711 23.5945H28.1772V25.215H28.4711V23.5945Z" fill="#1D1D1B"/>
<path d="M29.6153 23.5945H29.3214V25.215H29.6153V23.5945Z" fill="#1D1D1B"/>
<path d="M30.7594 23.5945H30.4655V25.215H30.7594V23.5945Z" fill="#1D1D1B"/>
<path d="M31.8993 23.5945H31.6055V25.215H31.8993V23.5945Z" fill="#1D1D1B"/>
<path d="M33.0435 23.5945H32.7496V25.215H33.0435V23.5945Z" fill="#1D1D1B"/>
<path d="M34.1876 23.5945H33.8937V25.215H34.1876V23.5945Z" fill="#1D1D1B"/>
<path d="M35.315 23.5945H35.0211V25.215H35.315V23.5945Z" fill="#1D1D1B"/>
<path d="M36.455 23.5945H36.1611V25.215H36.455V23.5945Z" fill="#1D1D1B"/>
<path d="M37.5991 23.5945H37.3052V25.215H37.5991V23.5945Z" fill="#1D1D1B"/>
<path d="M38.7432 23.5945H38.4493V25.215H38.7432V23.5945Z" fill="#1D1D1B"/>
<path d="M39.8832 23.5945H39.5893V25.215H39.8832V23.5945Z" fill="#1D1D1B"/>
<path d="M41.0273 23.5945H40.7334V25.215H41.0273V23.5945Z" fill="#1D1D1B"/>
<path d="M42.1714 23.5945H41.8776V25.215H42.1714V23.5945Z" fill="#1D1D1B"/>
<path d="M43.303 23.5945H43.0092V25.215H43.303V23.5945Z" fill="#1D1D1B"/>
<path d="M44.443 23.5945H44.1491V25.215H44.443V23.5945Z" fill="#1D1D1B"/>
<path d="M45.5829 23.5945H45.2891V25.215H45.5829V23.5945Z" fill="#1D1D1B"/>
<path d="M46.7271 23.5945H46.4332V25.215H46.7271V23.5945Z" fill="#1D1D1B"/>
<path d="M47.8712 23.5945H47.5773V25.215H47.8712V23.5945Z" fill="#1D1D1B"/>
<path d="M49.0153 23.5945H48.7214V25.215H49.0153V23.5945Z" fill="#1D1D1B"/>
<path d="M50.1594 23.5945H49.8656V25.215H50.1594V23.5945Z" fill="#1D1D1B"/>
<path d="M51.291 23.5945H50.9972V25.215H51.291V23.5945Z" fill="#1D1D1B"/>
<path d="M52.4394 23.5945H52.1455V25.215H52.4394V23.5945Z" fill="#1D1D1B"/>
<path d="M53.5793 23.5945H53.2854V25.215H53.5793V23.5945Z" fill="#1D1D1B"/>
<path d="M54.7151 23.5945H54.4212V25.215H54.7151V23.5945Z" fill="#1D1D1B"/>
<path d="M55.8592 23.5945H55.5653V25.215H55.8592V23.5945Z" fill="#1D1D1B"/>
<path d="M56.9908 23.5945H56.6969V25.215H56.9908V23.5945Z" fill="#1D1D1B"/>
<path d="M58.1349 23.5945H57.8411V25.215H58.1349V23.5945Z" fill="#1D1D1B"/>
<path d="M59.279 23.5945H58.9852V25.215H59.279V23.5945Z" fill="#1D1D1B"/>
<path d="M60.4232 23.5945H60.1293V25.215H60.4232V23.5945Z" fill="#1D1D1B"/>
<path d="M61.5631 23.5945H61.2693V25.215H61.5631V23.5945Z" fill="#1D1D1B"/>
<path d="M65.4173 23.5945H65.1234V25.215H65.4173V23.5945Z" fill="#1D1D1B"/>
<path d="M66.5447 23.5945H66.2508V25.215H66.5447V23.5945Z" fill="#1D1D1B"/>
<path d="M67.693 23.5945H67.3991V25.215H67.693V23.5945Z" fill="#1D1D1B"/>
<path d="M68.8329 23.5945H68.5391V25.215H68.8329V23.5945Z" fill="#1D1D1B"/>
<path d="M69.9729 23.5945H69.679V25.215H69.9729V23.5945Z" fill="#1D1D1B"/>
<path d="M71.1212 23.5945H70.8273V25.215H71.1212V23.5945Z" fill="#1D1D1B"/>
<path d="M72.2612 23.5945H71.9673V25.215H72.2612V23.5945Z" fill="#1D1D1B"/>
<path d="M73.3928 23.5945H73.0989V25.215H73.3928V23.5945Z" fill="#1D1D1B"/>
<path d="M74.5369 23.5945H74.243V25.215H74.5369V23.5945Z" fill="#1D1D1B"/>
<path d="M75.681 23.5945H75.3871V25.215H75.681V23.5945Z" fill="#1D1D1B"/>
<path d="M76.8209 23.5945H76.5271V25.215H76.8209V23.5945Z" fill="#1D1D1B"/>
<path d="M77.9609 23.5945H77.667V25.215H77.9609V23.5945Z" fill="#1D1D1B"/>
<path d="M79.1092 23.5945H78.8153V25.215H79.1092V23.5945Z" fill="#1D1D1B"/>
<path d="M80.2533 23.5945H79.9595V25.215H80.2533V23.5945Z" fill="#1D1D1B"/>
<path d="M81.3849 23.5945H81.0911V25.215H81.3849V23.5945Z" fill="#1D1D1B"/>
<path d="M82.5207 23.5945H82.2268V25.215H82.5207V23.5945Z" fill="#1D1D1B"/>
<path d="M83.6607 23.5945H83.3668V25.215H83.6607V23.5945Z" fill="#1D1D1B"/>
<path d="M84.809 23.5945H84.5151V25.215H84.809V23.5945Z" fill="#1D1D1B"/>
<path d="M85.9489 23.5945H85.655V25.215H85.9489V23.5945Z" fill="#1D1D1B"/>
<path d="M87.093 23.5945H86.7992V25.215H87.093V23.5945Z" fill="#1D1D1B"/>
<path d="M88.2288 23.5945H87.9349V25.215H88.2288V23.5945Z" fill="#1D1D1B"/>
<path d="M89.373 23.5945H89.0791V25.215H89.373V23.5945Z" fill="#1D1D1B"/>
<path d="M90.5087 23.5945H90.2148V25.215H90.5087V23.5945Z" fill="#1D1D1B"/>
<path d="M91.6529 23.5945H91.359V25.215H91.6529V23.5945Z" fill="#1D1D1B"/>
<path d="M92.7928 23.5945H92.4989V25.215H92.7928V23.5945Z" fill="#1D1D1B"/>
<path d="M93.937 23.5945H93.6431V25.215H93.937V23.5945Z" fill="#1D1D1B"/>
<path d="M95.0727 23.5945H94.7788V25.215H95.0727V23.5945Z" fill="#1D1D1B"/>
<path d="M96.2168 23.5945H95.9229V25.215H96.2168V23.5945Z" fill="#1D1D1B"/>
<path d="M97.361 23.5945H97.0671V25.215H97.361V23.5945Z" fill="#1D1D1B"/>
<path d="M98.5009 23.5945H98.207V25.215H98.5009V23.5945Z" fill="#1D1D1B"/>
<path d="M99.645 23.5945H99.3512V25.215H99.645V23.5945Z" fill="#1D1D1B"/>
<path d="M100.789 23.5945H100.495V25.215H100.789V23.5945Z" fill="#1D1D1B"/>
<path d="M101.912 23.5945H101.619V25.215H101.912V23.5945Z" fill="#1D1D1B"/>
<path d="M103.057 23.5945H102.763V25.215H103.057V23.5945Z" fill="#1D1D1B"/>
<path d="M129.722 23.5945H129.428V25.215H129.722V23.5945Z" fill="#1D1D1B"/>
<path d="M130.854 23.5945H130.56V25.215H130.854V23.5945Z" fill="#1D1D1B"/>
<path d="M132.002 23.5945H131.708V25.215H132.002V23.5945Z" fill="#1D1D1B"/>
<path d="M133.142 23.5945H132.848V25.215H133.142V23.5945Z" fill="#1D1D1B"/>
<path d="M134.29 23.5945H133.996V25.215H134.29V23.5945Z" fill="#1D1D1B"/>
<path d="M135.422 23.5945H135.128V25.215H135.422V23.5945Z" fill="#1D1D1B"/>
<path d="M136.562 23.5945H136.268V25.215H136.562V23.5945Z" fill="#1D1D1B"/>
<path d="M137.71 23.5945H137.416V25.215H137.71V23.5945Z" fill="#1D1D1B"/>
<path d="M138.842 23.5945H138.548V25.215H138.842V23.5945Z" fill="#1D1D1B"/>
<path d="M139.986 23.5945H139.692V25.215H139.986V23.5945Z" fill="#1D1D1B"/>
<path d="M141.13 23.5945H140.836V25.215H141.13V23.5945Z" fill="#1D1D1B"/>
<path d="M142.27 23.5945H141.976V25.215H142.27V23.5945Z" fill="#1D1D1B"/>
<path d="M143.414 23.5945H143.12V25.215H143.414V23.5945Z" fill="#1D1D1B"/>
</svg>
